<mxfile host="app.diagrams.net" agent="Mozilla/5.0 (Windows NT 10.0; Win64; x64) AppleWebKit/537.36 (KHTML, like Gecko) Chrome/136.0.0.0 Safari/537.36" version="27.0.5">
  <diagram name="PÃ¡gina-1" id="EzjBtJ36uHvrKFb0sW_J">
    <mxGraphModel dx="983" dy="518" grid="1" gridSize="10" guides="1" tooltips="1" connect="1" arrows="1" fold="1" page="1" pageScale="1" pageWidth="827" pageHeight="1169" math="0" shadow="0">
      <root>
        <mxCell id="0" />
        <mxCell id="1" parent="0" />
        <mxCell id="VjQNXsqcVe-dUPCTaeUL-5" style="edgeStyle=orthogonalEdgeStyle;rounded=0;orthogonalLoop=1;jettySize=auto;html=1;entryX=0;entryY=0.5;entryDx=0;entryDy=0;" edge="1" parent="1" source="VjQNXsqcVe-dUPCTaeUL-1" target="VjQNXsqcVe-dUPCTaeUL-4">
          <mxGeometry relative="1" as="geometry" />
        </mxCell>
        <mxCell id="VjQNXsqcVe-dUPCTaeUL-1" value="Aimar" style="shape=umlActor;verticalLabelPosition=bottom;verticalAlign=top;html=1;outlineConnect=0;" vertex="1" parent="1">
          <mxGeometry x="70" y="350" width="30" height="60" as="geometry" />
        </mxCell>
        <mxCell id="VjQNXsqcVe-dUPCTaeUL-9" style="edgeStyle=orthogonalEdgeStyle;rounded=0;orthogonalLoop=1;jettySize=auto;html=1;entryX=0;entryY=0.5;entryDx=0;entryDy=0;" edge="1" parent="1" source="VjQNXsqcVe-dUPCTaeUL-4" target="VjQNXsqcVe-dUPCTaeUL-7">
          <mxGeometry relative="1" as="geometry" />
        </mxCell>
        <mxCell id="VjQNXsqcVe-dUPCTaeUL-4" value="Inicia sesion" style="rounded=1;whiteSpace=wrap;html=1;" vertex="1" parent="1">
          <mxGeometry x="200" y="350" width="120" height="60" as="geometry" />
        </mxCell>
        <mxCell id="VjQNXsqcVe-dUPCTaeUL-10" style="edgeStyle=orthogonalEdgeStyle;rounded=0;orthogonalLoop=1;jettySize=auto;html=1;" edge="1" parent="1" source="VjQNXsqcVe-dUPCTaeUL-7" target="VjQNXsqcVe-dUPCTaeUL-8">
          <mxGeometry relative="1" as="geometry" />
        </mxCell>
        <mxCell id="VjQNXsqcVe-dUPCTaeUL-7" value="Entra en la tarea" style="rounded=1;whiteSpace=wrap;html=1;" vertex="1" parent="1">
          <mxGeometry x="414" y="350" width="120" height="60" as="geometry" />
        </mxCell>
        <mxCell id="VjQNXsqcVe-dUPCTaeUL-8" value="Sube el trabajo" style="rounded=1;whiteSpace=wrap;html=1;" vertex="1" parent="1">
          <mxGeometry x="640" y="350" width="120" height="60" as="geometry" />
        </mxCell>
      </root>
    </mxGraphModel>
  </diagram>
</mxfile>
